<svg width="704" height="725" viewBox="0 0 704 725" fill="none" xmlns="http://www.w3.org/2000/svg">
<g opacity="0.2" filter="url(#filter0_f)">
<ellipse cx="316.96" cy="521.121" rx="50.8211" ry="20.9245" fill="#0CCFAC"/>
</g>
<line opacity="0.4" x1="363.454" y1="221.612" x2="543.143" y2="444.992" stroke="url(#paint0_linear)" stroke-width="14"/>
<path opacity="0.4" d="M59.1061 248.327C59.1061 248.327 145.429 486.358 199.106 641.327" stroke="url(#paint1_linear)" stroke-width="14"/>
<path d="M53.1494 266.081L538.677 445.897" stroke="url(#paint2_linear)" stroke-width="14"/>
<path opacity="0.4" d="M546.106 440.827C546.106 440.827 278.606 595.827 204.015 639.327C277.212 456.002 363.106 219.327 363.106 219.327C245.106 228.827 179.045 234.368 61.1064 244.007" stroke="url(#paint3_linear)" stroke-width="14" stroke-linecap="round"/>
<rect width="9.95443" height="26.9716" transform="matrix(0.950168 0.31174 -0.311787 0.950152 315.909 350.735)" fill="url(#paint4_linear)"/>
<g clip-path="url(#clip0)">
<g opacity="0.3">
<path opacity="0.3" d="M253.379 422.843V412.459L256.247 410.859C257.056 415.774 262.814 418.995 267.624 419.668L300.413 438.884L314.704 444.053L360.374 420.433L359.31 419.83C363.218 417.999 365.323 413.826 367.427 410.002L370.502 411.856L372.329 412.366V423.006C372.208 424.215 371.773 425.372 371.067 426.36C370.361 427.348 369.409 428.134 368.306 428.638L322.566 455.11C319.557 456.641 316.229 457.439 312.854 457.439C309.479 457.439 306.152 456.641 303.142 455.11L257.403 428.638C256.315 428.144 255.373 427.376 254.668 426.41C253.963 425.443 253.519 424.31 253.379 423.122C253.379 423.122 253.379 422.936 253.379 422.843Z" fill="url(#paint5_linear)"/>
<path opacity="0.3" d="M267.623 419.761L300.413 438.884L312.854 443.381V457.428C309.472 457.498 306.129 456.7 303.142 455.11L257.403 428.638C256.315 428.144 255.373 427.376 254.668 426.41C253.963 425.443 253.519 424.311 253.379 423.122C253.379 423.122 253.379 422.936 253.379 422.843V412.459L256.015 410.999H256.293C257.171 415.82 262.86 418.996 267.623 419.761Z" fill="#0F054C"/>
<path opacity="0.3" d="M322.566 444.563L368.306 418.092C373.67 414.985 373.67 409.932 368.306 406.849L322.566 380.355C319.557 378.823 316.229 378.025 312.854 378.025C309.479 378.025 306.152 378.823 303.142 380.355L257.403 406.849C252.061 409.932 252.061 414.985 257.403 418.092L303.142 444.563C306.155 446.083 309.481 446.875 312.854 446.875C316.227 446.875 319.553 446.083 322.566 444.563Z" fill="url(#paint6_linear)"/>
<g opacity="0.3">
<path d="M322.566 444.563L368.306 418.092C373.67 414.985 373.67 409.932 368.306 406.849L322.566 380.355C319.557 378.823 316.229 378.025 312.854 378.025C309.479 378.025 306.152 378.823 303.142 380.355L257.403 406.849C252.061 409.932 252.061 414.985 257.403 418.092L303.142 444.563C306.155 446.083 309.481 446.875 312.854 446.875C316.227 446.875 319.553 446.083 322.566 444.563Z" fill="#0F054C"/>
</g>
</g>
<path d="M312.854 412.806C315.849 412.875 318.811 412.173 321.457 410.767L367.219 384.295C368.291 383.91 369.219 383.202 369.874 382.269C370.53 381.335 370.882 380.221 370.882 379.08C370.882 377.938 370.53 376.824 369.874 375.891C369.219 374.957 368.291 374.249 367.219 373.864L321.457 347.393C318.784 346.033 315.829 345.324 312.831 345.324C309.834 345.324 306.879 346.033 304.206 347.393L258.49 373.864C257.418 374.249 256.49 374.957 255.835 375.891C255.179 376.824 254.827 377.938 254.827 379.08C254.827 380.221 255.179 381.335 255.835 382.269C256.49 383.202 257.418 383.91 258.49 384.295L304.229 410.767C306.882 412.177 309.852 412.879 312.854 412.806ZM312.854 346.095C315.722 346.034 318.556 346.712 321.087 348.065L366.826 374.56C367.848 374.793 368.76 375.367 369.414 376.189C370.067 377.01 370.423 378.029 370.423 379.08C370.423 380.13 370.067 381.15 369.414 381.971C368.76 382.792 367.848 383.366 366.826 383.6L321.087 410.071C318.541 411.374 315.724 412.053 312.866 412.053C310.008 412.053 307.191 411.374 304.645 410.071L258.906 383.6C257.884 383.366 256.972 382.792 256.318 381.971C255.665 381.15 255.309 380.13 255.309 379.08C255.309 378.029 255.665 377.01 256.318 376.189C256.972 375.367 257.884 374.793 258.906 374.56L304.645 348.088C307.168 346.735 309.995 346.057 312.854 346.118V346.095Z" fill="#42E8E0"/>
<path d="M253.379 368.927V353.211L256.247 351.611C257.056 356.525 262.814 359.747 267.624 360.42L300.413 379.636L314.704 384.805L360.374 361.208L359.31 360.582C363.218 358.751 365.323 354.578 367.427 350.777L370.502 352.539L372.329 353.118V369.089C372.218 370.299 371.786 371.457 371.079 372.443C370.372 373.429 369.414 374.208 368.306 374.699L322.566 401.216C319.557 402.748 316.229 403.546 312.854 403.546C309.479 403.546 306.152 402.748 303.142 401.216L257.403 374.699C256.315 374.204 255.373 373.436 254.668 372.47C253.963 371.503 253.519 370.371 253.379 369.182C253.379 369.182 253.379 368.996 253.379 368.927Z" fill="#42E8E0" fill-opacity="0.4"/>
<path d="M253.379 354.973V344.565L256.247 342.989C257.056 347.879 262.814 351.101 267.624 351.774L300.413 371.083L314.704 376.182L360.374 352.539L359.31 351.913C363.218 350.221 365.392 345.932 367.427 342.131L370.502 343.962L372.329 344.472V355.135C372.218 356.344 371.786 357.502 371.079 358.489C370.372 359.475 369.414 360.254 368.306 360.744L322.566 387.309C319.557 388.84 316.229 389.638 312.854 389.638C309.479 389.638 306.152 388.84 303.142 387.309L257.403 360.744C256.315 360.25 255.373 359.482 254.668 358.516C253.963 357.549 253.519 356.417 253.379 355.228C253.379 355.228 253.379 355.042 253.379 354.973Z" fill="url(#paint7_linear)"/>
<path opacity="0.3" d="M267.624 351.774L300.414 371.083L312.854 375.719V389.627C309.473 389.696 306.13 388.898 303.142 387.309L257.403 360.744C256.315 360.25 255.373 359.482 254.668 358.516C253.964 357.549 253.519 356.417 253.379 355.228C253.379 355.228 253.379 355.042 253.379 354.973V344.565L256.015 343.104H256.293C257.172 347.903 262.86 351.125 267.624 351.774Z" fill="#0F054C"/>
<path d="M359.311 351.936L315.976 326.855C315.011 326.37 313.946 326.117 312.866 326.117C311.786 326.117 310.721 326.37 309.756 326.855L267.162 351.496L267.624 351.774C262.814 351.102 257.056 347.88 256.247 342.989L304.044 316.332L317.919 312.646L329.226 319.322L367.427 342.131C365.392 345.932 363.219 350.221 359.311 351.936Z" fill="url(#paint8_linear)"/>
<path opacity="0.3" d="M312.855 313.99L317.965 312.646L329.273 319.322L367.427 342.131C365.392 345.932 363.219 350.221 359.311 351.936L315.976 326.855C315.014 326.35 313.941 326.095 312.855 326.114V313.99Z" fill="#0F054C"/>
<path d="M322.566 376.669L368.306 350.221C373.67 347.115 373.67 342.085 368.306 338.978L322.566 312.484C319.557 310.953 316.229 310.155 312.854 310.155C309.479 310.155 306.152 310.953 303.142 312.484L257.403 338.955C252.084 342.061 252.084 347.091 257.403 350.221L303.142 376.669C306.152 378.2 309.479 378.998 312.854 378.998C316.229 378.998 319.557 378.2 322.566 376.669ZM309.756 316.401C310.721 315.916 311.786 315.663 312.866 315.663C313.946 315.663 315.011 315.916 315.976 316.401L361.715 342.78C362.088 342.909 362.411 343.152 362.64 343.474C362.869 343.796 362.992 344.181 362.992 344.576C362.992 344.972 362.869 345.357 362.64 345.679C362.411 346.001 362.088 346.244 361.715 346.373L315.976 372.844C315.011 373.33 313.946 373.582 312.866 373.582C311.786 373.582 310.721 373.33 309.756 372.844L264.016 346.373C263.644 346.244 263.32 346.001 263.091 345.679C262.863 345.357 262.74 344.972 262.74 344.576C262.74 344.181 262.863 343.796 263.091 343.474C263.32 343.152 263.644 342.909 264.016 342.78L309.756 316.401Z" fill="url(#paint9_linear)"/>
<path d="M264.017 342.78L309.756 316.308C310.721 315.823 311.786 315.57 312.866 315.57C313.946 315.57 315.011 315.823 315.976 316.308L361.715 342.78C362.848 343.429 363.242 344.379 362.848 345.098C362.596 344.612 362.201 344.215 361.715 343.962L315.976 317.606C315.011 317.121 313.946 316.868 312.866 316.868C311.786 316.868 310.721 317.121 309.756 317.606L264.017 344.078C263.525 344.331 263.122 344.727 262.86 345.214C262.49 344.379 262.86 343.429 264.017 342.78Z" fill="white"/>
<path d="M257.403 350.221L303.142 376.669C306.152 378.2 309.479 378.998 312.854 378.998C316.229 378.998 319.557 378.2 322.566 376.669L368.306 350.221C369.317 349.755 370.207 349.061 370.905 348.192C371.603 347.323 372.091 346.304 372.329 345.214C372.382 346.542 372.03 347.855 371.319 348.977C370.609 350.1 369.573 350.978 368.352 351.496L322.566 378.037C319.557 379.568 316.229 380.366 312.854 380.366C309.479 380.366 306.152 379.568 303.142 378.037L257.403 351.496C256.182 350.98 255.148 350.101 254.441 348.978C253.734 347.854 253.388 346.541 253.449 345.214C253.682 346.296 254.159 347.31 254.845 348.178C255.53 349.047 256.406 349.745 257.403 350.221Z" fill="white"/>
<path d="M321.272 375.927L367.011 349.456C371.636 346.767 371.636 342.502 367.011 339.697L321.272 313.133C318.666 311.798 315.781 311.102 312.854 311.102C309.928 311.102 307.043 311.798 304.437 313.133L258.698 339.697C254.073 342.386 254.073 346.767 258.698 349.456L304.437 375.927C307.043 377.262 309.928 377.958 312.854 377.958C315.781 377.958 318.666 377.262 321.272 375.927ZM308.461 315.659C309.825 314.961 311.335 314.598 312.866 314.598C314.398 314.598 315.907 314.961 317.271 315.659L363.08 342.038C363.605 342.222 364.06 342.565 364.382 343.02C364.704 343.475 364.877 344.019 364.877 344.576C364.877 345.134 364.704 345.678 364.382 346.133C364.06 346.587 363.605 346.931 363.08 347.115L317.271 373.586C315.907 374.284 314.398 374.648 312.866 374.648C311.335 374.648 309.825 374.284 308.461 373.586L262.722 347.115C262.197 346.931 261.742 346.587 261.42 346.133C261.098 345.678 260.925 345.134 260.925 344.576C260.925 344.019 261.098 343.475 261.42 343.02C261.742 342.565 262.197 342.222 262.722 342.038L308.461 315.659Z" fill="url(#paint10_linear)"/>
<path opacity="0.4" d="M309.756 316.308C310.721 315.823 311.786 315.57 312.866 315.57C313.946 315.57 315.011 315.823 315.976 316.308L361.716 342.78C362.088 342.909 362.412 343.151 362.64 343.473C362.869 343.795 362.992 344.181 362.992 344.576C362.992 344.972 362.869 345.357 362.64 345.679C362.412 346.001 362.088 346.244 361.716 346.373L315.976 372.844C315.011 373.33 313.946 373.582 312.866 373.582C311.786 373.582 310.721 373.33 309.756 372.844L264.017 346.373C263.644 346.244 263.321 346.001 263.092 345.679C262.863 345.357 262.74 344.972 262.74 344.576C262.74 344.181 262.863 343.795 263.092 343.473C263.321 343.151 263.644 342.909 264.017 342.78L309.756 316.308Z" fill="#42E8E0"/>
<path style="mix-blend-mode:lighten" opacity="0.5" d="M262.722 344.542V181.007H363.08V344.542C363.06 344.935 362.93 345.316 362.705 345.64C362.481 345.963 362.17 346.217 361.808 346.373L315.977 372.844C315.011 373.33 313.946 373.582 312.866 373.582C311.786 373.582 310.721 373.33 309.756 372.844L264.017 346.373C263.664 346.202 263.36 345.945 263.134 345.625C262.907 345.304 262.765 344.932 262.722 344.542Z" fill="url(#paint11_linear)"/>
<path d="M320.703 374.067L361.776 350.215C366.593 347.437 366.593 342.884 361.776 340.085L320.703 316.233C317.997 314.863 315.01 314.149 311.981 314.149C308.952 314.149 305.966 314.863 303.26 316.233L262.187 340.085C257.391 342.884 257.391 347.437 262.187 350.215L303.26 374.067C305.963 375.447 308.951 376.166 311.981 376.166C315.012 376.166 318 375.447 320.703 374.067Z" fill="url(#paint12_linear)"/>
<g opacity="0.6" filter="url(#filter1_f)">
<ellipse cx="312.106" cy="348.327" rx="31" ry="12" fill="#0CCFAC"/>
</g>
<ellipse cx="313.161" cy="309.794" rx="41.7029" ry="41.6993" fill="url(#paint13_linear)"/>
<g clip-path="url(#clip1)">
<path d="M313.161 283.351L299.359 291.452L304.433 294.444L313.161 289.336L321.889 294.444L326.963 291.452L313.161 283.351Z" fill="white"/>
<path d="M321.889 298.675L326.963 301.668V307.653L318.235 312.761V322.978L313.161 325.97L308.087 322.978V312.761L299.359 307.653V301.668L304.433 298.675L313.161 303.784L321.889 298.675Z" fill="white"/>
<path d="M326.963 311.884V317.869L321.889 320.862V314.877L326.963 311.884Z" fill="white"/>
<path d="M321.838 325.093L330.566 319.985V309.769L335.64 306.776V322.978L321.838 331.078V325.093Z" fill="white"/>
<path d="M330.566 299.553L325.491 296.56L330.566 293.567L335.64 296.56V302.545L330.566 305.538V299.553Z" fill="white"/>
<path d="M308.087 333.245V327.26L313.161 330.253L318.235 327.26V333.245L313.161 336.238L308.087 333.245Z" fill="white"/>
<path d="M304.433 320.862L299.359 317.869V311.884L304.433 314.877V320.862Z" fill="white"/>
<path d="M313.161 299.553L308.087 296.56L313.161 293.567L318.235 296.56L313.161 299.553Z" fill="white"/>
<path d="M300.831 296.56L295.756 299.553V305.538L290.682 302.545V296.56L295.756 293.567L300.831 296.56Z" fill="white"/>
<path d="M290.682 306.776L295.756 309.769V319.985L304.484 325.093V331.078L290.682 322.978V306.776Z" fill="white"/>
</g>
</g>
<g clip-path="url(#clip2)">
<g opacity="0.3">
<path opacity="0.3" d="M660.769 596.097V575.43L655.062 572.246C653.452 582.027 641.992 588.439 632.42 589.777L567.162 628.021L538.721 638.308L447.829 591.299L449.946 590.1C442.168 586.455 437.98 578.151 433.792 570.54L427.671 574.23L424.036 575.245V596.42C424.277 598.827 425.143 601.129 426.548 603.096C427.953 605.063 429.848 606.626 432.043 607.63L523.073 660.314C529.063 663.361 535.685 664.949 542.402 664.949C549.119 664.949 555.742 663.361 561.731 660.314L652.761 607.63C654.926 606.646 656.801 605.118 658.204 603.194C659.606 601.271 660.49 599.017 660.769 596.651C660.769 596.651 660.769 596.282 660.769 596.097Z" fill="url(#paint14_linear)"/>
<path opacity="0.3" d="M632.42 589.962L567.162 628.021L542.402 636.971V664.927C549.132 665.066 555.786 663.478 561.731 660.314L652.761 607.63C654.926 606.646 656.801 605.118 658.204 603.195C659.606 601.271 660.49 599.017 660.769 596.651C660.769 596.651 660.769 596.282 660.769 596.097V575.43L655.523 572.523H654.97C653.222 582.119 641.9 588.439 632.42 589.962Z" fill="#0F054C"/>
<path opacity="0.3" d="M523.073 639.323L432.043 586.64C421.366 580.458 421.366 570.401 432.043 564.266L523.073 511.536C529.063 508.489 535.685 506.9 542.402 506.9C549.119 506.9 555.742 508.489 561.731 511.536L652.761 564.266C663.392 570.401 663.392 580.458 652.761 586.64L561.731 639.323C555.735 642.349 549.115 643.925 542.402 643.925C535.689 643.925 529.069 642.349 523.073 639.323Z" fill="url(#paint15_linear)"/>
<g opacity="0.3">
<path d="M523.073 639.323L432.043 586.64C421.366 580.458 421.366 570.401 432.043 564.266L523.073 511.536C529.063 508.489 535.685 506.9 542.402 506.9C549.119 506.9 555.742 508.489 561.731 511.536L652.761 564.266C663.392 570.401 663.392 580.458 652.761 586.64L561.731 639.323C555.735 642.349 549.115 643.925 542.402 643.925C535.689 643.925 529.069 642.349 523.073 639.323Z" fill="#0F054C"/>
</g>
</g>
<path d="M542.402 576.122C536.443 576.259 530.549 574.861 525.282 572.062L434.206 519.378C432.072 518.612 430.227 517.204 428.922 515.346C427.617 513.488 426.917 511.271 426.917 508.999C426.917 506.726 427.617 504.51 428.922 502.652C430.227 500.794 432.072 499.385 434.206 498.619L525.282 445.935C530.602 443.228 536.483 441.818 542.448 441.818C548.414 441.818 554.295 443.228 559.614 445.935L650.598 498.619C652.732 499.385 654.578 500.794 655.883 502.652C657.188 504.51 657.888 506.726 657.888 508.999C657.888 511.271 657.188 513.488 655.883 515.346C654.578 517.204 652.732 518.612 650.598 519.378L559.568 572.062C554.288 574.869 548.377 576.267 542.402 576.122ZM542.402 443.352C536.696 443.231 531.055 444.581 526.019 447.273L434.989 500.003C432.955 500.467 431.139 501.61 429.839 503.245C428.538 504.879 427.83 506.908 427.83 508.999C427.83 511.089 428.538 513.118 429.839 514.752C431.139 516.387 432.955 517.53 434.989 517.994L526.019 570.678C531.085 573.27 536.692 574.621 542.379 574.621C548.067 574.621 553.674 573.27 558.74 570.678L649.77 517.994C651.804 517.53 653.619 516.387 654.92 514.752C656.221 513.118 656.929 511.089 656.929 508.999C656.929 506.908 656.221 504.879 654.92 503.245C653.619 501.61 651.804 500.467 649.77 500.003L558.74 447.319C553.721 444.627 548.094 443.277 542.402 443.398V443.352Z" fill="#42E8E0"/>
<path d="M660.769 488.792V457.515L655.062 454.331C653.452 464.112 641.992 470.524 632.42 471.862L567.162 510.106L538.721 520.393L447.829 473.43L449.946 472.185C442.168 468.54 437.98 460.236 433.792 452.671L427.671 456.177L424.036 457.33V489.115C424.257 491.523 425.116 493.827 426.524 495.79C427.931 497.753 429.837 499.303 432.043 500.279L523.073 553.055C529.063 556.103 535.685 557.691 542.402 557.691C549.119 557.691 555.742 556.103 561.731 553.055L652.761 500.279C654.926 499.295 656.801 497.767 658.204 495.844C659.606 493.92 660.49 491.666 660.769 489.3C660.769 489.3 660.769 488.931 660.769 488.792Z" fill="#42E8E0" fill-opacity="0.4"/>
<path d="M660.769 461.021V440.307L655.062 437.17C653.452 446.904 641.992 453.317 632.42 454.655L567.162 493.083L538.721 503.232L447.829 456.177L449.946 454.931C442.168 451.564 437.842 443.029 433.792 435.463L427.671 439.108L424.036 440.123V461.344C424.257 463.751 425.116 466.056 426.524 468.018C427.931 469.981 429.837 471.531 432.043 472.508L523.073 525.376C529.063 528.423 535.685 530.011 542.402 530.011C549.119 530.011 555.742 528.423 561.731 525.376L652.761 472.508C654.926 471.524 656.801 469.996 658.204 468.072C659.606 466.149 660.49 463.895 660.769 461.528C660.769 461.528 660.769 461.159 660.769 461.021Z" fill="url(#paint16_linear)"/>
<path opacity="0.3" d="M632.42 454.654L567.162 493.083L542.403 502.309V529.989C549.133 530.128 555.786 528.54 561.732 525.376L652.762 472.508C654.927 471.523 656.801 469.995 658.204 468.072C659.607 466.148 660.491 463.894 660.77 461.528C660.77 461.528 660.77 461.159 660.77 461.021V440.307L655.523 437.401H654.971C653.222 446.95 641.901 453.363 632.42 454.654Z" fill="#0F054C"/>
<path d="M449.945 454.977L536.189 405.062C538.11 404.096 540.23 403.593 542.379 403.593C544.528 403.593 546.648 404.096 548.569 405.062L633.34 454.101L632.42 454.654C641.992 453.316 653.452 446.904 655.062 437.17L559.936 384.118L532.324 376.782L509.819 390.069L433.792 435.463C437.842 443.029 442.168 451.563 449.945 454.977Z" fill="url(#paint17_linear)"/>
<path opacity="0.3" d="M542.402 379.458L532.231 376.782L509.727 390.069L433.792 435.463C437.842 443.029 442.168 451.563 449.945 454.977L536.189 405.062C538.105 404.057 540.241 403.549 542.402 403.585V379.458Z" fill="#0F054C"/>
<path d="M523.073 504.201L432.043 451.563C421.366 445.381 421.366 435.371 432.043 429.189L523.073 376.459C529.063 373.412 535.685 371.824 542.402 371.824C549.119 371.824 555.742 373.412 561.731 376.459L652.761 429.143C663.346 435.325 663.346 445.335 652.761 451.563L561.731 504.201C555.742 507.248 549.119 508.836 542.402 508.836C535.685 508.836 529.063 507.248 523.073 504.201ZM548.569 384.256C546.648 383.29 544.529 382.787 542.379 382.787C540.23 382.787 538.111 383.29 536.189 384.256L445.159 436.755C444.418 437.012 443.774 437.494 443.319 438.135C442.863 438.776 442.619 439.543 442.619 440.33C442.619 441.117 442.863 441.884 443.319 442.525C443.774 443.166 444.418 443.648 445.159 443.905L536.189 496.589C538.111 497.555 540.23 498.058 542.379 498.058C544.529 498.058 546.648 497.555 548.569 496.589L639.599 443.905C640.341 443.648 640.984 443.166 641.44 442.525C641.895 441.884 642.14 441.117 642.14 440.33C642.14 439.543 641.895 438.776 641.44 438.135C640.984 437.494 640.341 437.012 639.599 436.755L548.569 384.256Z" fill="url(#paint18_linear)"/>
<path d="M639.599 436.755L548.569 384.071C546.648 383.106 544.528 382.603 542.379 382.603C540.23 382.603 538.11 383.106 536.189 384.071L445.159 436.755C442.904 438.047 442.122 439.938 442.904 441.368C443.406 440.4 444.194 439.611 445.159 439.108L536.189 386.655C538.11 385.689 540.23 385.186 542.379 385.186C544.528 385.186 546.648 385.689 548.569 386.655L639.599 439.338C640.577 439.841 641.379 440.629 641.9 441.599C642.637 439.938 641.9 438.047 639.599 436.755Z" fill="white"/>
<path d="M652.761 451.563L561.731 504.201C555.742 507.248 549.119 508.836 542.402 508.836C535.685 508.836 529.063 507.248 523.073 504.201L432.043 451.563C430.03 450.637 428.26 449.255 426.87 447.525C425.48 445.796 424.51 443.767 424.036 441.599C423.93 444.242 424.632 446.855 426.046 449.089C427.46 451.322 429.52 453.071 431.951 454.101L523.073 506.923C529.063 509.97 535.685 511.558 542.402 511.558C549.119 511.558 555.742 509.97 561.731 506.923L652.761 454.101C655.192 453.074 657.249 451.325 658.657 449.09C660.064 446.854 660.753 444.239 660.631 441.599C660.168 443.753 659.217 445.771 657.853 447.499C656.488 449.226 654.747 450.617 652.761 451.563Z" fill="white"/>
<path d="M525.651 502.725L434.62 450.041C425.416 444.69 425.416 436.201 434.62 430.619L525.651 377.751C530.837 375.095 536.578 373.71 542.402 373.71C548.227 373.71 553.968 375.095 559.154 377.751L650.184 430.619C659.388 435.971 659.388 444.69 650.184 450.041L559.154 502.725C553.968 505.381 548.227 506.766 542.402 506.766C536.578 506.766 530.837 505.381 525.651 502.725ZM551.146 382.78C548.432 381.391 545.427 380.666 542.379 380.666C539.331 380.666 536.327 381.391 533.612 382.78L442.444 435.279C441.399 435.645 440.493 436.328 439.853 437.233C439.212 438.138 438.868 439.22 438.868 440.33C438.868 441.44 439.212 442.522 439.853 443.427C440.493 444.332 441.399 445.015 442.444 445.382L533.612 498.065C536.327 499.454 539.331 500.178 542.379 500.178C545.427 500.178 548.432 499.454 551.146 498.065L642.176 445.382C643.222 445.015 644.127 444.332 644.768 443.427C645.409 442.522 645.753 441.44 645.753 440.33C645.753 439.22 645.409 438.138 644.768 437.233C644.127 436.328 643.222 435.645 642.176 435.279L551.146 382.78Z" fill="url(#paint19_linear)"/>
<path opacity="0.4" d="M548.569 384.071C546.648 383.106 544.528 382.603 542.379 382.603C540.23 382.603 538.11 383.106 536.189 384.071L445.159 436.755C444.417 437.012 443.774 437.494 443.318 438.135C442.863 438.776 442.618 439.543 442.618 440.33C442.618 441.117 442.863 441.884 443.318 442.525C443.774 443.166 444.417 443.648 445.159 443.905L536.189 496.589C538.11 497.555 540.23 498.058 542.379 498.058C544.528 498.058 546.648 497.555 548.569 496.589L639.599 443.905C640.341 443.648 640.984 443.166 641.439 442.525C641.895 441.884 642.14 441.117 642.14 440.33C642.14 439.543 641.895 438.776 641.439 438.135C640.984 437.494 640.341 437.012 639.599 436.755L548.569 384.071Z" fill="#42E8E0"/>
<path style="mix-blend-mode:lighten" opacity="0.5" d="M641.815 426.612V-32.8455H442.517V426.612C442.556 427.719 442.814 428.788 443.26 429.697C443.707 430.607 444.324 431.32 445.042 431.757L536.058 506.13C537.975 507.494 540.09 508.204 542.235 508.204C544.379 508.204 546.494 507.494 548.411 506.13L639.243 431.757C639.944 431.279 640.548 430.556 640.998 429.656C641.447 428.756 641.729 427.709 641.815 426.612Z" fill="url(#paint20_linear)"/>
<path d="M527.04 498.576L445.297 451.105C435.709 445.577 435.709 436.515 445.297 430.945L527.04 383.474C532.424 380.747 538.369 379.327 544.397 379.327C550.425 379.327 556.369 380.747 561.754 383.474L643.497 430.945C653.043 436.515 653.043 445.577 643.497 451.105L561.754 498.576C556.375 501.322 550.429 502.753 544.397 502.753C538.365 502.753 532.418 501.322 527.04 498.576Z" fill="url(#paint21_linear)"/>
<g opacity="0.6" filter="url(#filter2_f)">
<ellipse cx="538.927" cy="446.251" rx="50.8211" ry="20.9245" fill="#0CCFAC"/>
</g>
<ellipse cx="542.398" cy="358.797" rx="87.4743" ry="87.4669" fill="url(#paint22_linear)"/>
<path d="M542.398 386.318V414.58L580.083 365.738L542.398 386.318Z" fill="#EDEDED"/>
<path d="M542.398 342.709V379.087L580.083 358.507L542.398 342.709Z" fill="white"/>
<path d="M542.398 300.825V342.71L580.083 358.507L542.398 300.825Z" fill="#EDEDED"/>
<path d="M542.398 386.318V414.58L504.713 365.738L542.398 386.318Z" fill="white"/>
<path d="M542.398 342.709V379.087L504.713 358.507L542.398 342.709Z" fill="#EDEDED"/>
<path d="M542.398 300.825V342.71L504.713 358.507L542.398 300.825Z" fill="white"/>
</g>
<g clip-path="url(#clip3)">
<path d="M253.758 695.252V686.521L251.355 685.177C250.677 689.288 245.85 692.017 241.819 692.582L214.335 708.717L202.357 713.083L164.077 693.225L164.969 692.718C161.693 691.179 159.872 687.651 158.166 684.436L155.588 685.995L154.057 686.385V695.349C154.155 696.36 154.519 697.326 155.111 698.148C155.704 698.97 156.504 699.618 157.429 700.026L195.767 722.378C198.292 723.656 201.08 724.322 203.908 724.322C206.735 724.322 209.523 723.656 212.048 722.378L250.386 700.026C251.297 699.61 252.087 698.965 252.678 698.152C253.269 697.34 253.641 696.388 253.758 695.388C253.758 695.388 253.758 695.252 253.758 695.174V695.252Z" fill="url(#paint23_linear)"/>
<path opacity="0.3" d="M241.819 692.582L214.335 708.717L203.907 712.517V724.327C206.741 724.376 209.541 723.706 212.048 722.378L250.386 700.026C251.297 699.61 252.087 698.965 252.678 698.152C253.268 697.34 253.641 696.388 253.758 695.388C253.758 695.388 253.758 695.252 253.758 695.174V686.521L251.549 685.293H251.316C250.579 689.347 245.811 692.017 241.819 692.582Z" fill="#0F054C"/>
<path d="M195.767 713.492L157.429 691.237C152.933 688.626 152.933 684.397 157.429 681.786L195.767 659.531C198.29 658.244 201.079 657.573 203.908 657.573C206.736 657.573 209.525 658.244 212.048 659.531L250.386 681.786C254.844 684.436 254.844 688.626 250.386 691.237L212.048 713.492C209.525 714.779 206.736 715.45 203.908 715.45C201.079 715.45 198.29 714.779 195.767 713.492Z" fill="url(#paint24_linear)"/>
<path d="M195.767 713.492L157.429 691.237C152.933 688.626 152.933 684.397 157.429 681.786L195.767 659.531C198.29 658.244 201.079 657.573 203.908 657.573C206.736 657.573 209.525 658.244 212.048 659.531L250.386 681.786C254.844 684.436 254.844 688.626 250.386 691.237L212.048 713.492C209.525 714.779 206.736 715.45 203.908 715.45C201.079 715.45 198.29 714.779 195.767 713.492Z" fill="#200A4E"/>
<path d="M203.908 681.123C201.397 681.166 198.917 680.569 196.697 679.389L158.34 657.154C157.481 656.76 156.742 656.142 156.2 655.364C155.658 654.586 155.333 653.677 155.259 652.73C155.333 651.788 155.659 650.884 156.201 650.113C156.744 649.341 157.482 648.731 158.34 648.345L196.697 626.091C198.94 624.956 201.416 624.365 203.927 624.365C206.438 624.365 208.914 624.956 211.156 626.091L249.475 648.345C250.33 648.734 251.067 649.346 251.609 650.116C252.15 650.887 252.478 651.79 252.557 652.73C252.478 653.676 252.152 654.584 251.61 655.361C251.069 656.138 250.332 656.757 249.475 657.154L211.137 679.389C208.912 680.572 206.424 681.169 203.908 681.123ZM197.008 678.804C199.144 679.89 201.504 680.456 203.898 680.456C206.292 680.456 208.652 679.89 210.788 678.804L249.126 656.55C249.892 656.211 250.553 655.669 251.037 654.983C251.522 654.297 251.812 653.491 251.878 652.652C251.796 651.83 251.497 651.045 251.014 650.377C250.53 649.71 249.879 649.183 249.126 648.852L210.788 626.675C208.652 625.59 206.292 625.024 203.898 625.024C201.504 625.024 199.144 625.59 197.008 626.675L158.67 648.93C157.934 649.275 157.3 649.807 156.831 650.473C156.362 651.14 156.074 651.918 155.995 652.73C156.067 653.567 156.36 654.37 156.844 655.055C157.328 655.741 157.985 656.283 158.747 656.628L197.008 678.804Z" fill="#42E8E0"/>
<path opacity="0.4" d="M253.758 644.195V631.002L251.355 629.657C250.677 633.769 245.85 636.497 241.819 637.062L214.335 653.256L202.357 657.622L164.077 637.666L164.969 637.16C161.693 635.718 159.872 632.132 158.166 628.936L155.588 630.476L154.057 630.904V644.331C154.158 645.348 154.523 646.32 155.115 647.151C155.707 647.982 156.505 648.642 157.429 649.067L195.767 671.321C198.292 672.599 201.08 673.265 203.908 673.265C206.735 673.265 209.523 672.599 212.048 671.321L250.386 649.067C251.297 648.651 252.087 648.005 252.678 647.193C253.269 646.38 253.641 645.428 253.758 644.429C253.758 644.429 253.758 644.273 253.758 644.195Z" fill="#42E8E0"/>
<path d="M253.758 632.463V623.733L251.355 622.388C250.677 626.5 245.85 629.228 241.819 629.793L214.335 645.948L202.357 650.294L164.077 630.436L164.969 629.871C161.693 628.332 159.93 624.824 158.166 621.609L155.588 623.148L154.057 623.655V632.6C154.158 633.616 154.523 634.589 155.115 635.42C155.707 636.25 156.505 636.911 157.429 637.335L195.767 659.59C198.292 660.868 201.08 661.534 203.908 661.534C206.735 661.534 209.523 660.868 212.048 659.59L250.386 637.335C251.3 636.918 252.091 636.269 252.682 635.453C253.273 634.637 253.644 633.681 253.758 632.678C253.758 632.678 253.758 632.541 253.758 632.463Z" fill="url(#paint25_linear)"/>
<path opacity="0.3" d="M241.819 629.871L214.335 645.948L203.907 649.729V661.538C206.742 661.597 209.544 660.926 212.048 659.59L250.386 637.335C251.3 636.918 252.091 636.269 252.682 635.453C253.273 634.637 253.644 633.681 253.758 632.678C253.758 632.678 253.758 632.541 253.758 632.463V623.733L251.549 622.505H251.316C250.579 626.559 245.811 629.228 241.819 629.871Z" fill="#0F054C"/>
<path d="M195.767 650.703L157.429 628.449C152.933 625.857 152.933 621.609 157.429 618.997L195.767 596.743C198.292 595.464 201.08 594.799 203.908 594.799C206.735 594.799 209.523 595.464 212.048 596.743L250.386 618.997C254.863 621.609 254.863 625.857 250.386 628.449L212.048 650.703C209.525 651.991 206.736 652.661 203.908 652.661C201.079 652.661 198.29 651.991 195.767 650.703Z" fill="url(#paint26_linear)"/>
<path d="M203.907 646.67C201.635 646.709 199.389 646.172 197.376 645.111L167.43 627.709C166.659 627.369 165.992 626.829 165.498 626.144C165.004 625.459 164.701 624.653 164.62 623.811C164.707 622.971 165.012 622.168 165.506 621.484C165.999 620.8 166.663 620.258 167.43 619.914L197.376 602.355C199.401 601.328 201.638 600.792 203.907 600.792C206.176 600.792 208.413 601.328 210.439 602.355L240.384 619.738C241.147 620.087 241.806 620.63 242.295 621.314C242.785 621.997 243.088 622.798 243.175 623.636C243.094 624.475 242.793 625.278 242.303 625.963C241.813 626.648 241.151 627.189 240.384 627.533L210.439 645.111C208.426 646.172 206.18 646.709 203.907 646.67ZM197.705 644.526C199.627 645.496 201.747 646.002 203.898 646.002C206.048 646.002 208.169 645.496 210.09 644.526L240.055 627.124C240.728 626.83 241.311 626.36 241.743 625.764C242.176 625.168 242.443 624.467 242.516 623.733C242.44 622.997 242.173 622.295 241.741 621.696C241.308 621.097 240.727 620.624 240.055 620.323L210.09 602.94C208.17 601.965 206.049 601.458 203.898 601.458C201.746 601.458 199.625 601.965 197.705 602.94L167.76 620.323C167.088 620.624 166.506 621.097 166.074 621.696C165.642 622.295 165.374 622.997 165.298 623.733C165.372 624.467 165.639 625.168 166.071 625.764C166.504 626.36 167.087 626.83 167.76 627.124L197.705 644.526Z" fill="#5351AF"/>
<path d="M250.386 628.449L212.048 650.704C209.525 651.991 206.736 652.662 203.908 652.662C201.079 652.662 198.29 651.991 195.767 650.704L157.429 628.449C156.585 628.063 155.841 627.485 155.256 626.762C154.671 626.038 154.261 625.188 154.057 624.279C154.014 625.393 154.31 626.493 154.906 627.433C155.501 628.374 156.368 629.109 157.391 629.54L195.767 651.795C198.29 653.082 201.079 653.753 203.908 653.753C206.736 653.753 209.525 653.082 212.048 651.795L250.386 629.54C251.409 629.112 252.277 628.378 252.87 627.436C253.463 626.494 253.753 625.392 253.7 624.279C253.501 625.182 253.099 626.027 252.524 626.75C251.95 627.473 251.218 628.054 250.386 628.449Z" fill="white"/>
</g>
<g clip-path="url(#clip4)">
<path d="M411.187 227.998V219.267L408.784 217.923C408.105 222.034 403.279 224.763 399.248 225.328L371.764 241.463L359.786 245.829L321.506 225.971L322.398 225.464C319.122 223.925 317.3 220.398 315.595 217.182L313.017 218.741L311.486 219.131V228.095C311.583 229.106 311.947 230.072 312.54 230.894C313.133 231.716 313.933 232.364 314.858 232.772L353.196 255.124C355.721 256.402 358.509 257.068 361.336 257.068C364.164 257.068 366.951 256.402 369.477 255.124L407.814 232.772C408.726 232.356 409.516 231.711 410.106 230.898C410.697 230.086 411.069 229.134 411.187 228.134C411.187 228.134 411.187 227.998 411.187 227.92V227.998Z" fill="url(#paint27_linear)"/>
<path opacity="0.3" d="M399.248 225.328L371.764 241.463L361.336 245.263V257.073C364.17 257.122 366.97 256.452 369.477 255.124L407.815 232.772C408.726 232.356 409.516 231.711 410.107 230.898C410.697 230.086 411.07 229.134 411.187 228.134C411.187 228.134 411.187 227.998 411.187 227.92V219.267L408.978 218.04H408.745C408.008 222.093 403.24 224.763 399.248 225.328Z" fill="#0F054C"/>
<path d="M353.196 246.238L314.858 223.983C310.361 221.372 310.361 217.143 314.858 214.532L353.196 192.277C355.718 190.99 358.507 190.319 361.336 190.319C364.165 190.319 366.954 190.99 369.477 192.277L407.814 214.532C412.272 217.182 412.272 221.372 407.814 223.983L369.477 246.238C366.954 247.525 364.165 248.196 361.336 248.196C358.507 248.196 355.718 247.525 353.196 246.238Z" fill="url(#paint28_linear)"/>
<path d="M353.196 246.238L314.858 223.983C310.361 221.372 310.361 217.143 314.858 214.532L353.196 192.277C355.718 190.99 358.507 190.319 361.336 190.319C364.165 190.319 366.954 190.99 369.477 192.277L407.814 214.532C412.272 217.182 412.272 221.372 407.814 223.983L369.477 246.238C366.954 247.525 364.165 248.196 361.336 248.196C358.507 248.196 355.718 247.525 353.196 246.238Z" fill="#200A4E"/>
<path d="M361.336 213.869C358.826 213.912 356.346 213.315 354.126 212.135L315.769 189.9C314.909 189.506 314.17 188.888 313.628 188.11C313.086 187.333 312.761 186.423 312.687 185.476C312.762 184.534 313.088 183.63 313.63 182.859C314.172 182.087 314.911 181.477 315.769 181.092L354.126 158.837C356.369 157.702 358.845 157.112 361.356 157.112C363.866 157.112 366.342 157.702 368.585 158.837L406.904 181.092C407.759 181.48 408.496 182.092 409.037 182.863C409.579 183.633 409.906 184.536 409.985 185.476C409.907 186.422 409.581 187.33 409.039 188.107C408.498 188.884 407.761 189.503 406.904 189.9L368.566 212.135C366.341 213.318 363.853 213.915 361.336 213.869ZM354.436 211.55C356.573 212.636 358.933 213.202 361.327 213.202C363.72 213.202 366.081 212.636 368.217 211.55L406.555 189.296C407.321 188.957 407.981 188.415 408.466 187.729C408.951 187.043 409.241 186.237 409.307 185.398C409.225 184.576 408.926 183.791 408.443 183.123C407.959 182.456 407.307 181.929 406.555 181.598L368.217 159.422C366.081 158.336 363.72 157.77 361.327 157.77C358.933 157.77 356.573 158.336 354.436 159.422L316.099 181.676C315.363 182.021 314.729 182.553 314.26 183.22C313.791 183.886 313.503 184.664 313.424 185.476C313.496 186.313 313.789 187.116 314.272 187.801C314.756 188.487 315.413 189.03 316.176 189.374L354.436 211.55Z" fill="#42E8E0"/>
<path opacity="0.4" d="M411.187 176.941V163.748L408.784 162.403C408.105 166.515 403.279 169.243 399.248 169.808L371.764 186.002L359.786 190.368L321.506 170.412L322.398 169.906C319.122 168.464 317.3 164.878 315.595 161.682L313.017 163.222L311.486 163.65V177.077C311.587 178.094 311.952 179.066 312.544 179.897C313.135 180.728 313.933 181.389 314.858 181.813L353.196 204.067C355.721 205.346 358.509 206.011 361.336 206.011C364.164 206.011 366.951 205.346 369.477 204.067L407.814 181.813C408.726 181.397 409.516 180.751 410.106 179.939C410.697 179.126 411.069 178.174 411.187 177.175C411.187 177.175 411.187 177.019 411.187 176.941Z" fill="#42E8E0"/>
<path d="M411.187 165.209V156.479L408.784 155.134C408.105 159.246 403.279 161.974 399.248 162.539L371.764 178.695L359.786 183.04L321.506 163.183L322.398 162.617C319.122 161.078 317.358 157.57 315.595 154.355L313.017 155.894L311.486 156.401V165.346C311.587 166.362 311.952 167.335 312.544 168.166C313.135 168.997 313.933 169.657 314.858 170.081L353.196 192.336C355.721 193.614 358.509 194.28 361.336 194.28C364.164 194.28 366.951 193.614 369.477 192.336L407.814 170.081C408.729 169.664 409.52 169.015 410.111 168.199C410.702 167.383 411.073 166.427 411.187 165.424C411.187 165.424 411.187 165.287 411.187 165.209Z" fill="url(#paint29_linear)"/>
<path opacity="0.3" d="M399.248 162.617L371.764 178.695L361.336 182.475V194.285C364.171 194.343 366.973 193.672 369.477 192.336L407.815 170.081C408.729 169.664 409.52 169.015 410.111 168.199C410.702 167.383 411.073 166.427 411.187 165.424C411.187 165.424 411.187 165.287 411.187 165.209V156.479L408.978 155.251H408.745C408.008 159.305 403.24 161.974 399.248 162.617Z" fill="#0F054C"/>
<path d="M353.196 183.449L314.858 161.195C310.361 158.603 310.361 154.355 314.858 151.743L353.196 129.489C355.721 128.21 358.509 127.545 361.336 127.545C364.164 127.545 366.951 128.21 369.477 129.489L407.814 151.743C412.292 154.355 412.292 158.603 407.814 161.195L369.477 183.449C366.954 184.737 364.165 185.408 361.336 185.408C358.507 185.408 355.718 184.737 353.196 183.449Z" fill="url(#paint30_linear)"/>
<path d="M361.336 179.416C359.063 179.455 356.817 178.919 354.804 177.857L324.859 160.455C324.088 160.115 323.421 159.575 322.927 158.89C322.433 158.205 322.13 157.4 322.049 156.557C322.136 155.717 322.441 154.914 322.934 154.23C323.428 153.546 324.091 153.004 324.859 152.66L354.804 135.102C356.83 134.074 359.067 133.538 361.336 133.538C363.605 133.538 365.842 134.074 367.868 135.102L397.813 152.484C398.576 152.833 399.235 153.376 399.724 154.06C400.214 154.743 400.517 155.544 400.604 156.382C400.523 157.221 400.222 158.024 399.731 158.709C399.241 159.394 398.579 159.935 397.813 160.279L367.868 177.857C365.855 178.919 363.609 179.455 361.336 179.416ZM355.134 177.272C357.055 178.243 359.176 178.748 361.326 178.748C363.477 178.748 365.597 178.243 367.519 177.272L397.484 159.87C398.157 159.576 398.739 159.107 399.172 158.511C399.605 157.915 399.872 157.213 399.945 156.479C399.869 155.743 399.601 155.041 399.169 154.442C398.737 153.843 398.156 153.37 397.484 153.069L367.519 135.686C365.599 134.712 363.477 134.204 361.326 134.204C359.175 134.204 357.054 134.712 355.134 135.686L325.188 153.069C324.516 153.37 323.935 153.843 323.503 154.442C323.071 155.041 322.803 155.743 322.727 156.479C322.8 157.213 323.067 157.915 323.5 158.511C323.933 159.107 324.515 159.576 325.188 159.87L355.134 177.272Z" fill="#5351AF"/>
<path d="M407.814 161.195L369.477 183.45C366.954 184.737 364.165 185.408 361.336 185.408C358.507 185.408 355.718 184.737 353.196 183.45L314.858 161.195C314.014 160.809 313.27 160.231 312.685 159.508C312.1 158.784 311.689 157.934 311.486 157.025C311.442 158.139 311.739 159.239 312.334 160.179C312.93 161.12 313.797 161.855 314.819 162.286L353.196 184.541C355.718 185.828 358.507 186.499 361.336 186.499C364.165 186.499 366.954 185.828 369.477 184.541L407.814 162.286C408.838 161.859 409.706 161.124 410.299 160.182C410.892 159.241 411.182 158.138 411.129 157.025C410.93 157.928 410.527 158.774 409.953 159.496C409.378 160.219 408.647 160.8 407.814 161.195Z" fill="white"/>
<g opacity="0.6" filter="url(#filter3_f)">
<ellipse cx="369.106" cy="155.327" rx="31" ry="12" fill="#0CCFAC"/>
</g>
</g>
<g clip-path="url(#clip5)">
<g opacity="0.3">
<path opacity="0.3" d="M114.315 315.692V306.665L111.814 305.275C111.107 309.527 106.084 312.347 101.888 312.932L73.2828 329.614L60.8157 334.128L20.9737 313.596L21.9017 313.073C18.4924 311.481 16.6567 307.834 14.8209 304.53L12.1379 306.121L10.5442 306.565V315.833C10.639 316.885 11.0147 317.892 11.6321 318.75C12.2495 319.608 13.086 320.284 14.0543 320.709L53.9569 343.738C56.5852 345.06 59.4869 345.748 62.4296 345.748C65.3722 345.748 68.274 345.06 70.9023 343.738L110.805 320.709C111.754 320.279 112.575 319.612 113.19 318.772C113.805 317.931 114.193 316.947 114.315 315.914C114.315 315.914 114.315 315.772 114.315 315.692Z" fill="url(#paint31_linear)"/>
<path opacity="0.3" d="M101.888 312.932L73.2829 329.614L62.4297 333.543V345.753C65.3787 345.804 68.2928 345.111 70.9024 343.738L110.805 320.709C111.754 320.279 112.576 319.612 113.191 318.772C113.805 317.932 114.193 316.947 114.315 315.914C114.315 315.914 114.315 315.773 114.315 315.692V306.666L112.015 305.396H111.773C111.007 309.587 106.044 312.347 101.888 312.932Z" fill="#0F054C"/>
<path opacity="0.3" d="M53.9569 334.551L14.0543 311.541C9.37415 308.902 9.37415 304.469 14.0543 301.769L53.9569 278.68C56.5824 277.349 59.4852 276.655 62.4296 276.655C65.3739 276.655 68.2768 277.349 70.9023 278.68L110.805 301.769C115.445 304.469 115.445 308.902 110.805 311.541L70.9023 334.551C68.2768 335.882 65.3739 336.575 62.4296 336.575C59.4852 336.575 56.5824 335.882 53.9569 334.551Z" fill="url(#paint32_linear)"/>
<g opacity="0.3">
<path d="M53.9569 334.551L14.0543 311.541C9.37415 308.902 9.37415 304.469 14.0543 301.769L53.9569 278.68C56.5824 277.349 59.4852 276.655 62.4296 276.655C65.374 276.655 68.2768 277.349 70.9023 278.68L110.805 301.769C115.445 304.469 115.445 308.902 110.805 311.541L70.9023 334.551C68.2768 335.882 65.374 336.575 62.4296 336.575C59.4852 336.575 56.5824 335.882 53.9569 334.551Z" fill="#0F054C"/>
</g>
</g>
<path d="M62.4296 305.477C59.8167 305.521 57.2352 304.904 54.9252 303.684L15.0025 280.694C14.1077 280.287 13.3384 279.649 12.7744 278.844C12.2103 278.04 11.8721 277.1 11.7949 276.121C11.8728 275.147 12.2118 274.212 12.7762 273.415C13.3406 272.617 14.1096 271.986 15.0025 271.587L54.9252 248.578C57.2582 247.401 59.8357 246.787 62.4498 246.787C65.0638 246.787 67.6413 247.401 69.9744 248.578L109.857 271.587C110.747 271.989 111.514 272.622 112.078 273.419C112.642 274.215 112.982 275.148 113.064 276.121C112.983 277.099 112.643 278.037 112.08 278.841C111.516 279.644 110.749 280.284 109.857 280.694L69.9542 303.684C67.6382 304.907 65.0493 305.524 62.4296 305.477ZM62.4296 247.47C59.9284 247.417 57.4555 248.007 55.2479 249.183L15.3454 272.192C14.5795 272.549 13.9199 273.099 13.4317 273.788C12.9436 274.477 12.6436 275.281 12.5615 276.121C12.6362 276.986 12.9411 277.816 13.4448 278.525C13.9484 279.233 14.6324 279.795 15.4261 280.15L55.2479 303.079C57.4715 304.202 59.928 304.787 62.4195 304.787C64.911 304.787 67.3676 304.202 69.5911 303.079L109.494 280.07C110.29 279.718 110.976 279.157 111.48 278.448C111.984 277.739 112.288 276.907 112.358 276.04C112.272 275.19 111.962 274.379 111.459 273.688C110.955 272.998 110.277 272.454 109.494 272.111L69.5911 249.183C67.3899 248.009 64.9241 247.42 62.4296 247.47Z" fill="#42E8E0"/>
<path opacity="0.4" d="M114.315 267.296V253.655L111.814 252.265C111.107 256.517 106.084 259.337 101.888 259.922L73.2828 276.665L60.8157 281.178L20.9737 260.546L21.9017 260.022C18.4924 258.531 16.5961 254.824 14.8209 251.52L12.1379 253.111L10.5442 253.555V267.437C10.6498 268.488 11.0295 269.493 11.6453 270.353C12.2612 271.212 13.0918 271.894 14.0543 272.333L53.9569 295.342C56.5852 296.664 59.4869 297.352 62.4296 297.352C65.3722 297.352 68.274 296.664 70.9023 295.342L110.805 272.333C111.754 271.903 112.575 271.236 113.19 270.396C113.805 269.556 114.193 268.571 114.315 267.538C114.315 267.538 114.315 267.376 114.315 267.296Z" fill="#42E8E0"/>
<path d="M114.315 255.167V246.14L111.814 244.75C111.107 249.001 106.084 251.822 101.888 252.406L73.2828 269.109L60.8157 273.602L20.9737 253.071L21.9017 252.487C18.4924 250.895 16.6567 247.269 14.8209 243.944L12.1379 245.536L10.5442 246.06V255.308C10.6498 256.359 11.0295 257.364 11.6453 258.223C12.2612 259.082 13.0918 259.765 14.0543 260.204L53.9569 283.213C56.5852 284.535 59.4869 285.223 62.4296 285.223C65.3722 285.223 68.274 284.535 70.9023 283.213L110.805 260.204C111.756 259.772 112.58 259.102 113.195 258.258C113.81 257.414 114.196 256.425 114.315 255.388C114.315 255.388 114.315 255.247 114.315 255.167Z" fill="url(#paint33_linear)"/>
<path opacity="0.3" d="M101.888 252.487L73.2826 269.109L62.4294 273.018V285.228C65.3795 285.288 68.2961 284.595 70.9022 283.213L110.805 260.204C111.756 259.772 112.58 259.102 113.195 258.258C113.81 257.414 114.196 256.425 114.315 255.388C114.315 255.388 114.315 255.247 114.315 255.167V246.14L112.015 244.871H111.773C111.006 249.062 106.044 251.822 101.888 252.487Z" fill="#0F054C"/>
<path d="M53.9576 274.025L14.0551 251.016C9.37488 248.336 9.37488 243.944 14.0551 241.244L53.9576 218.235C56.5859 216.913 59.4877 216.225 62.4303 216.225C65.373 216.225 68.2747 216.913 70.9031 218.235L110.806 241.244C115.466 243.944 115.466 248.336 110.806 251.016L70.9031 274.025C68.2775 275.356 65.3747 276.05 62.4303 276.05C59.486 276.05 56.5831 275.356 53.9576 274.025Z" fill="url(#paint34_linear)"/>
<path d="M110.805 251.016L70.9022 274.025C68.2767 275.356 65.3738 276.05 62.4295 276.05C59.4851 276.05 56.5823 275.356 53.9567 274.025L14.0542 251.016C13.1756 250.617 12.4015 250.02 11.7926 249.272C11.1836 248.524 10.7563 247.645 10.5441 246.704C10.4993 247.856 10.8075 248.994 11.4275 249.966C12.0475 250.938 12.9498 251.698 14.0139 252.144L53.9567 275.154C56.5823 276.485 59.4851 277.178 62.4295 277.178C65.3738 277.178 68.2767 276.485 70.9022 275.154L110.805 252.144C111.87 251.702 112.773 250.942 113.39 249.969C114.008 248.995 114.31 247.855 114.254 246.704C114.047 247.638 113.628 248.513 113.03 249.26C112.433 250.007 111.671 250.608 110.805 251.016Z" fill="white"/>
<g opacity="0.6" filter="url(#filter4_f)">
<ellipse cx="62.1062" cy="246.327" rx="31" ry="12" fill="#0CCFAC"/>
</g>
</g>
<path style="mix-blend-mode:lighten" opacity="0.5" d="M411.106 158.277V0.32666H311.106V158.277C311.126 158.658 311.255 159.025 311.479 159.338C311.703 159.651 312.013 159.896 312.373 160.046L358.042 185.614C359.004 186.083 360.065 186.327 361.141 186.327C362.217 186.327 363.278 186.083 364.24 185.614L409.816 160.046C410.168 159.882 410.47 159.633 410.696 159.324C410.922 159.014 411.063 158.654 411.106 158.277Z" fill="url(#paint35_linear)"/>
<path style="mix-blend-mode:lighten" opacity="0.5" d="M114.106 250.635V100.327H11.1064V250.635C11.127 250.997 11.2602 251.346 11.4909 251.644C11.7216 251.941 12.0406 252.175 12.4117 252.318L59.45 276.648C60.4407 277.094 61.5337 277.327 62.642 277.327C63.7504 277.327 64.8434 277.094 65.8341 276.648L112.777 252.318C113.14 252.161 113.452 251.925 113.684 251.63C113.916 251.336 114.062 250.993 114.106 250.635Z" fill="url(#paint36_linear)"/>
<path style="mix-blend-mode:lighten" opacity="0.5" d="M254.106 626.111V450.327H154.106V626.111C154.126 626.534 154.256 626.943 154.48 627.291C154.704 627.639 155.013 627.912 155.374 628.079L201.042 656.533C202.004 657.055 203.065 657.327 204.141 657.327C205.217 657.327 206.278 657.055 207.24 656.533L252.816 628.079C253.168 627.896 253.471 627.619 253.696 627.275C253.922 626.931 254.063 626.53 254.106 626.111Z" fill="url(#paint37_linear)"/>
<ellipse cx="361.346" cy="115.789" rx="41.7029" ry="41.6993" fill="url(#paint38_linear)"/>
<ellipse cx="61.2888" cy="205.29" rx="41.7029" ry="41.6993" fill="url(#paint39_linear)"/>
<ellipse cx="203.809" cy="585.026" rx="41.7029" ry="41.6993" fill="url(#paint40_linear)"/>
<g clip-path="url(#clip6)">
<g clip-path="url(#clip7)">
<path d="M209.116 574.85C209.116 567.261 205.457 560.723 202.655 558.583C202.655 558.583 202.461 558.466 202.461 558.777C202.227 573.449 194.793 577.457 190.668 582.789C181.211 595.164 190.006 608.707 198.958 611.197C203.978 612.598 197.79 608.707 197.012 600.534C196.078 590.611 209.116 583.061 209.116 574.85Z" fill="white"/>
<path d="M214.019 579.87C213.98 579.831 213.903 579.831 213.825 579.87C213.825 579.87 213.825 579.87 213.786 579.909C213.63 581.738 211.606 585.707 209.077 589.326C200.475 601.624 205.379 607.539 208.143 610.73C209.738 612.598 208.143 610.73 212.151 608.823C212.463 608.668 219.935 604.698 220.752 595.709C221.57 586.952 216.004 581.465 214.019 579.87Z" fill="white"/>
</g>
</g>
<g clip-path="url(#clip8)">
<path d="M344.866 125.465C345.161 125.17 345.566 124.999 345.995 124.999H384.96C385.673 124.999 386.029 125.858 385.525 126.361L377.828 134.058C377.533 134.352 377.128 134.524 376.699 134.524H337.734C337.022 134.524 336.666 133.665 337.169 133.162L344.866 125.465Z" fill="white"/>
<path d="M344.866 96.7282C345.173 96.4336 345.578 96.2617 345.995 96.2617H384.96C385.673 96.2617 386.029 97.121 385.525 97.6243L377.828 105.321C377.533 105.615 377.128 105.787 376.699 105.787H337.734C337.022 105.787 336.666 104.928 337.169 104.425L344.866 96.7282Z" fill="white"/>
<path d="M377.828 111.005C377.533 110.71 377.128 110.538 376.699 110.538H337.734C337.022 110.538 336.666 111.397 337.169 111.901L344.866 119.597C345.161 119.892 345.566 120.064 345.995 120.064H384.96C385.673 120.064 386.029 119.204 385.525 118.701L377.828 111.005Z" fill="white"/>
</g>
<path d="M61.3563 176.897C57.8429 176.897 54.9939 189.64 54.9939 205.358C54.9939 221.077 57.8429 233.819 61.3563 233.819C64.8698 233.819 67.7188 221.077 67.7188 205.358C67.7188 189.64 64.8698 176.897 61.3563 176.897ZM61.7956 232.213C61.3938 232.749 60.992 232.347 60.992 232.347C59.374 230.472 58.5649 226.989 58.5649 226.989C55.7347 217.882 56.4084 198.328 56.4084 198.328C57.7384 182.804 60.158 179.136 60.9814 178.322C61.0654 178.239 61.1761 178.188 61.294 178.179C61.4118 178.169 61.5292 178.202 61.6256 178.27C62.8203 179.117 63.8223 182.657 63.8223 182.657C66.7811 193.639 66.5131 203.952 66.5131 203.952C66.7811 212.925 65.0305 222.97 65.0305 222.97C63.6829 230.604 61.7956 232.213 61.7956 232.213Z" fill="white"/>
<path d="M86.0462 191.194C84.2969 188.145 71.8266 192.016 58.1846 199.838C44.5426 207.66 34.9197 216.472 36.6676 219.519C38.4156 222.566 50.8872 218.697 64.5292 210.875C78.1712 203.053 87.7942 194.241 86.0462 191.194ZM38.2815 219.101C37.6118 219.017 37.7631 218.466 37.7631 218.466C38.5846 216.131 41.1989 213.696 41.1989 213.696C47.6938 206.709 64.993 197.562 64.993 197.562C79.1201 190.99 83.5082 191.267 84.6213 191.574C84.7356 191.606 84.8349 191.677 84.9016 191.775C84.9683 191.873 84.9982 191.992 84.9859 192.11C84.852 193.568 82.2734 196.197 82.2734 196.197C74.2243 204.232 65.1443 209.133 65.1443 209.133C57.4933 213.832 47.9084 217.31 47.9084 217.31C40.6151 219.938 38.2818 219.101 38.2818 219.101H38.2815Z" fill="white"/>
<path d="M85.9832 219.621C87.7461 216.581 78.1474 207.728 64.5534 199.847C50.9593 191.967 38.4906 188.048 36.7294 191.094C34.9681 194.139 44.5652 202.987 58.1671 210.867C71.769 218.748 84.222 222.667 85.9832 219.621ZM37.8975 192.268C37.6371 191.651 38.1868 191.502 38.1868 191.502C40.6204 191.043 44.0387 192.09 44.0387 192.09C53.3385 194.207 69.9212 204.594 69.9212 204.594C82.6888 213.527 84.6469 217.462 84.9404 218.579C84.9702 218.694 84.9586 218.815 84.9077 218.922C84.8567 219.029 84.7696 219.114 84.6618 219.163C83.3304 219.773 79.7647 218.865 79.7647 218.865C68.7745 215.918 59.9851 210.519 59.9851 210.519C52.0878 206.26 44.2788 199.707 44.2788 199.707C38.3451 194.711 37.8993 192.275 37.8993 192.275L37.8975 192.268Z" fill="white"/>
<path d="M61.2895 208.638C63.1389 208.638 64.6381 207.139 64.6381 205.29C64.6381 203.44 63.1389 201.941 61.2895 201.941C59.4401 201.941 57.9409 203.44 57.9409 205.29C57.9409 207.139 59.4401 208.638 61.2895 208.638Z" fill="white"/>
<path d="M75.0195 194.442C76.0921 194.442 76.9617 193.543 76.9617 192.433C76.9617 191.324 76.0921 190.424 75.0195 190.424C73.9469 190.424 73.0774 191.324 73.0774 192.433C73.0774 193.543 73.9469 194.442 75.0195 194.442Z" fill="white"/>
<path d="M43.141 201.272C44.2136 201.272 45.0832 200.372 45.0832 199.263C45.0832 198.153 44.2136 197.254 43.141 197.254C42.0683 197.254 41.1987 198.153 41.1987 199.263C41.1987 200.372 42.0683 201.272 43.141 201.272Z" fill="white"/>
<path d="M57.3383 225.915C58.411 225.915 59.2806 225.016 59.2806 223.906C59.2806 222.797 58.411 221.897 57.3383 221.897C56.2656 221.897 55.396 222.797 55.396 223.906C55.396 225.016 56.2656 225.915 57.3383 225.915Z" fill="white"/>
<defs>
<filter id="filter0_f" x="226.138" y="460.196" width="181.642" height="121.849" filterUnits="userSpaceOnUse" color-interpolation-filters="sRGB">
<feFlood flood-opacity="0" result="BackgroundImageFix"/>
<feBlend mode="normal" in="SourceGraphic" in2="BackgroundImageFix" result="shape"/>
<feGaussianBlur stdDeviation="20" result="effect1_foregroundBlur"/>
</filter>
<filter id="filter1_f" x="241.106" y="296.327" width="142" height="104" filterUnits="userSpaceOnUse" color-interpolation-filters="sRGB">
<feFlood flood-opacity="0" result="BackgroundImageFix"/>
<feBlend mode="normal" in="SourceGraphic" in2="BackgroundImageFix" result="shape"/>
<feGaussianBlur stdDeviation="20" result="effect1_foregroundBlur"/>
</filter>
<filter id="filter2_f" x="448.106" y="385.327" width="181.642" height="121.849" filterUnits="userSpaceOnUse" color-interpolation-filters="sRGB">
<feFlood flood-opacity="0" result="BackgroundImageFix"/>
<feBlend mode="normal" in="SourceGraphic" in2="BackgroundImageFix" result="shape"/>
<feGaussianBlur stdDeviation="20" result="effect1_foregroundBlur"/>
</filter>
<filter id="filter3_f" x="298.106" y="103.327" width="142" height="104" filterUnits="userSpaceOnUse" color-interpolation-filters="sRGB">
<feFlood flood-opacity="0" result="BackgroundImageFix"/>
<feBlend mode="normal" in="SourceGraphic" in2="BackgroundImageFix" result="shape"/>
<feGaussianBlur stdDeviation="20" result="effect1_foregroundBlur"/>
</filter>
<filter id="filter4_f" x="-8.8938" y="194.327" width="142" height="104" filterUnits="userSpaceOnUse" color-interpolation-filters="sRGB">
<feFlood flood-opacity="0" result="BackgroundImageFix"/>
<feBlend mode="normal" in="SourceGraphic" in2="BackgroundImageFix" result="shape"/>
<feGaussianBlur stdDeviation="20" result="effect1_foregroundBlur"/>
</filter>
<linearGradient id="paint0_linear" x1="447.844" y1="337.69" x2="447.065" y2="338.317" gradientUnits="userSpaceOnUse">
<stop stop-color="#62A7DA"/>
<stop offset="1" stop-color="#266378" stop-opacity="0"/>
</linearGradient>
<linearGradient id="paint1_linear" x1="182.325" y1="433.829" x2="185.499" y2="432.075" gradientUnits="userSpaceOnUse">
<stop stop-color="#46A3C4"/>
<stop offset="1" stop-color="#266378" stop-opacity="0"/>
</linearGradient>
<linearGradient id="paint2_linear" x1="443.842" y1="274.258" x2="147.988" y2="437.726" gradientUnits="userSpaceOnUse">
<stop stop-color="#62A7DA"/>
<stop offset="1" stop-color="#266378" stop-opacity="0"/>
</linearGradient>
<linearGradient id="paint3_linear" x1="302.606" y1="225.327" x2="302.606" y2="643.671" gradientUnits="userSpaceOnUse">
<stop stop-color="#46ADC4"/>
<stop offset="1" stop-color="#266378" stop-opacity="0"/>
</linearGradient>
<linearGradient id="paint4_linear" x1="4.97722" y1="0" x2="4.97722" y2="26.9716" gradientUnits="userSpaceOnUse">
<stop stop-color="#327590"/>
<stop offset="1" stop-color="#2E6786"/>
</linearGradient>
<linearGradient id="paint5_linear" x1="360.49" y1="391.829" x2="266.007" y2="446.243" gradientUnits="userSpaceOnUse">
<stop stop-color="#BCBEFF"/>
<stop offset="0.23" stop-color="#AAADF8"/>
<stop offset="0.68" stop-color="#7C83E5"/>
<stop offset="1" stop-color="#5761D7"/>
</linearGradient>
<linearGradient id="paint6_linear" x1="372.329" y1="412.459" x2="253.379" y2="412.459" gradientUnits="userSpaceOnUse">
<stop stop-color="#E9E9FD"/>
<stop offset="0.36" stop-color="#D3D2F9"/>
<stop offset="0.71" stop-color="#C5C4F7"/>
<stop offset="1" stop-color="#C0BFF6"/>
</linearGradient>
<linearGradient id="paint7_linear" x1="-236.694" y1="3271.41" x2="-2331.64" y2="6299.63" gradientUnits="userSpaceOnUse">
<stop stop-color="#BCBEFF"/>
<stop offset="0.23" stop-color="#AAADF8"/>
<stop offset="0.68" stop-color="#7C83E5"/>
<stop offset="1" stop-color="#5761D7"/>
</linearGradient>
<linearGradient id="paint8_linear" x1="354.825" y1="320.249" x2="270.575" y2="368.774" gradientUnits="userSpaceOnUse">
<stop offset="0.24" stop-color="#5761D7"/>
<stop offset="0.39" stop-color="#7A82E5"/>
<stop offset="0.55" stop-color="#979CF0"/>
<stop offset="0.7" stop-color="#ACAFF8"/>
<stop offset="0.85" stop-color="#B8BAFD"/>
<stop offset="1" stop-color="#BCBEFF"/>
</linearGradient>
<linearGradient id="paint9_linear" x1="372.329" y1="5167.76" x2="-5744.66" y2="5167.76" gradientUnits="userSpaceOnUse">
<stop stop-color="#E9E9FD"/>
<stop offset="0.36" stop-color="#D3D2F9"/>
<stop offset="0.71" stop-color="#C5C4F7"/>
<stop offset="1" stop-color="#C0BFF6"/>
</linearGradient>
<linearGradient id="paint10_linear" x1="279.432" y1="5028.45" x2="-5466.93" y2="5028.45" gradientUnits="userSpaceOnUse">
<stop stop-color="#E9E9FD"/>
<stop offset="0.36" stop-color="#D3D2F9"/>
<stop offset="0.71" stop-color="#C5C4F7"/>
<stop offset="1" stop-color="#C0BFF6"/>
</linearGradient>
<linearGradient id="paint11_linear" x1="312.855" y1="373.586" x2="312.855" y2="181.007" gradientUnits="userSpaceOnUse">
<stop stop-color="#42E8E0"/>
<stop offset="0.11" stop-color="#37B6BF"/>
<stop offset="0.22" stop-color="#2C87A1"/>
<stop offset="0.34" stop-color="#235F87"/>
<stop offset="0.473958" stop-color="#1C3F72"/>
<stop offset="0.78125" stop-color="#150C33"/>
<stop offset="1" stop-color="#120B2B"/>
</linearGradient>
<linearGradient id="paint12_linear" x1="365.389" y1="1235.11" x2="-5128.35" y2="1235.11" gradientUnits="userSpaceOnUse">
<stop stop-color="#E9E9FD"/>
<stop offset="0.36" stop-color="#D3D2F9"/>
<stop offset="0.71" stop-color="#C5C4F7"/>
<stop offset="1" stop-color="#C0BFF6"/>
</linearGradient>
<linearGradient id="paint13_linear" x1="313.161" y1="268.095" x2="313.161" y2="351.494" gradientUnits="userSpaceOnUse">
<stop offset="0.234375" stop-color="#29CD9C"/>
<stop offset="1" stop-color="#35AABD"/>
</linearGradient>
<linearGradient id="paint14_linear" x1="447.599" y1="534.372" x2="635.638" y2="642.667" gradientUnits="userSpaceOnUse">
<stop stop-color="#BCBEFF"/>
<stop offset="0.23" stop-color="#AAADF8"/>
<stop offset="0.68" stop-color="#7C83E5"/>
<stop offset="1" stop-color="#5761D7"/>
</linearGradient>
<linearGradient id="paint15_linear" x1="424.036" y1="575.43" x2="660.769" y2="575.43" gradientUnits="userSpaceOnUse">
<stop stop-color="#E9E9FD"/>
<stop offset="0.36" stop-color="#D3D2F9"/>
<stop offset="0.71" stop-color="#C5C4F7"/>
<stop offset="1" stop-color="#C0BFF6"/>
</linearGradient>
<linearGradient id="paint16_linear" x1="1636.11" y1="6265.29" x2="5805.46" y2="12292.1" gradientUnits="userSpaceOnUse">
<stop stop-color="#BCBEFF"/>
<stop offset="0.23" stop-color="#AAADF8"/>
<stop offset="0.68" stop-color="#7C83E5"/>
<stop offset="1" stop-color="#5761D7"/>
</linearGradient>
<linearGradient id="paint17_linear" x1="458.874" y1="391.914" x2="626.547" y2="488.488" gradientUnits="userSpaceOnUse">
<stop offset="0.24" stop-color="#5761D7"/>
<stop offset="0.39" stop-color="#7A82E5"/>
<stop offset="0.55" stop-color="#979CF0"/>
<stop offset="0.7" stop-color="#ACAFF8"/>
<stop offset="0.85" stop-color="#B8BAFD"/>
<stop offset="1" stop-color="#BCBEFF"/>
</linearGradient>
<linearGradient id="paint18_linear" x1="424.036" y1="10039.4" x2="12598.1" y2="10039.4" gradientUnits="userSpaceOnUse">
<stop stop-color="#E9E9FD"/>
<stop offset="0.36" stop-color="#D3D2F9"/>
<stop offset="0.71" stop-color="#C5C4F7"/>
<stop offset="1" stop-color="#C0BFF6"/>
</linearGradient>
<linearGradient id="paint19_linear" x1="608.92" y1="9762.17" x2="12045.3" y2="9762.17" gradientUnits="userSpaceOnUse">
<stop stop-color="#E9E9FD"/>
<stop offset="0.36" stop-color="#D3D2F9"/>
<stop offset="0.71" stop-color="#C5C4F7"/>
<stop offset="1" stop-color="#C0BFF6"/>
</linearGradient>
<linearGradient id="paint20_linear" x1="542.258" y1="508.214" x2="542.258" y2="-32.8455" gradientUnits="userSpaceOnUse">
<stop stop-color="#0CCFAC"/>
<stop offset="0.11" stop-color="#0CCFAC"/>
<stop offset="0.22" stop-color="#2C87A1"/>
<stop offset="0.34" stop-color="#235F87"/>
<stop offset="0.473958" stop-color="#1C3F72"/>
<stop offset="0.78125" stop-color="#150C33"/>
<stop offset="1" stop-color="#120B2B"/>
</linearGradient>
<linearGradient id="paint21_linear" x1="438.106" y1="2212.21" x2="11371.7" y2="2212.21" gradientUnits="userSpaceOnUse">
<stop stop-color="#E9E9FD"/>
<stop offset="0.36" stop-color="#D3D2F9"/>
<stop offset="0.71" stop-color="#C5C4F7"/>
<stop offset="1" stop-color="#C0BFF6"/>
</linearGradient>
<linearGradient id="paint22_linear" x1="542.398" y1="271.331" x2="542.398" y2="446.264" gradientUnits="userSpaceOnUse">
<stop offset="0.234375" stop-color="#29CD9C"/>
<stop offset="1" stop-color="#35AABD"/>
</linearGradient>
<linearGradient id="paint23_linear" x1="163.981" y1="669.158" x2="243.293" y2="714.698" gradientUnits="userSpaceOnUse">
<stop stop-color="#BCBEFF"/>
<stop offset="0.23" stop-color="#AAADF8"/>
<stop offset="0.68" stop-color="#7C83E5"/>
<stop offset="1" stop-color="#5761D7"/>
</linearGradient>
<linearGradient id="paint24_linear" x1="154.057" y1="686.521" x2="253.758" y2="686.521" gradientUnits="userSpaceOnUse">
<stop stop-color="#E9E9FD"/>
<stop offset="0.36" stop-color="#D3D2F9"/>
<stop offset="0.71" stop-color="#C5C4F7"/>
<stop offset="1" stop-color="#C0BFF6"/>
</linearGradient>
<linearGradient id="paint25_linear" x1="664.528" y1="858.763" x2="2426.77" y2="3399.33" gradientUnits="userSpaceOnUse">
<stop stop-color="#BCBEFF"/>
<stop offset="0.23" stop-color="#AAADF8"/>
<stop offset="0.68" stop-color="#7C83E5"/>
<stop offset="1" stop-color="#5761D7"/>
</linearGradient>
<linearGradient id="paint26_linear" x1="154.057" y1="1454.06" x2="5281.95" y2="1454.06" gradientUnits="userSpaceOnUse">
<stop stop-color="#E9E9FD"/>
<stop offset="0.36" stop-color="#D3D2F9"/>
<stop offset="0.71" stop-color="#C5C4F7"/>
<stop offset="1" stop-color="#C0BFF6"/>
</linearGradient>
<linearGradient id="paint27_linear" x1="321.409" y1="201.904" x2="400.721" y2="247.444" gradientUnits="userSpaceOnUse">
<stop stop-color="#BCBEFF"/>
<stop offset="0.23" stop-color="#AAADF8"/>
<stop offset="0.68" stop-color="#7C83E5"/>
<stop offset="1" stop-color="#5761D7"/>
</linearGradient>
<linearGradient id="paint28_linear" x1="311.486" y1="219.267" x2="411.187" y2="219.267" gradientUnits="userSpaceOnUse">
<stop stop-color="#E9E9FD"/>
<stop offset="0.36" stop-color="#D3D2F9"/>
<stop offset="0.71" stop-color="#C5C4F7"/>
<stop offset="1" stop-color="#C0BFF6"/>
</linearGradient>
<linearGradient id="paint29_linear" x1="821.957" y1="391.51" x2="2584.2" y2="2932.08" gradientUnits="userSpaceOnUse">
<stop stop-color="#BCBEFF"/>
<stop offset="0.23" stop-color="#AAADF8"/>
<stop offset="0.68" stop-color="#7C83E5"/>
<stop offset="1" stop-color="#5761D7"/>
</linearGradient>
<linearGradient id="paint30_linear" x1="311.486" y1="986.809" x2="5439.38" y2="986.809" gradientUnits="userSpaceOnUse">
<stop stop-color="#E9E9FD"/>
<stop offset="0.36" stop-color="#D3D2F9"/>
<stop offset="0.71" stop-color="#C5C4F7"/>
<stop offset="1" stop-color="#C0BFF6"/>
</linearGradient>
<linearGradient id="paint31_linear" x1="20.8729" y1="288.713" x2="103.149" y2="336.271" gradientUnits="userSpaceOnUse">
<stop stop-color="#BCBEFF"/>
<stop offset="0.23" stop-color="#AAADF8"/>
<stop offset="0.68" stop-color="#7C83E5"/>
<stop offset="1" stop-color="#5761D7"/>
</linearGradient>
<linearGradient id="paint32_linear" x1="10.5442" y1="306.665" x2="114.315" y2="306.665" gradientUnits="userSpaceOnUse">
<stop stop-color="#E9E9FD"/>
<stop offset="0.36" stop-color="#D3D2F9"/>
<stop offset="0.71" stop-color="#C5C4F7"/>
<stop offset="1" stop-color="#C0BFF6"/>
</linearGradient>
<linearGradient id="paint33_linear" x1="541.851" y1="489.141" x2="2359.57" y2="3127.19" gradientUnits="userSpaceOnUse">
<stop stop-color="#BCBEFF"/>
<stop offset="0.23" stop-color="#AAADF8"/>
<stop offset="0.68" stop-color="#7C83E5"/>
<stop offset="1" stop-color="#5761D7"/>
</linearGradient>
<linearGradient id="paint34_linear" x1="10.5449" y1="1104.63" x2="5347.74" y2="1104.63" gradientUnits="userSpaceOnUse">
<stop stop-color="#E9E9FD"/>
<stop offset="0.36" stop-color="#D3D2F9"/>
<stop offset="0.71" stop-color="#C5C4F7"/>
<stop offset="1" stop-color="#C0BFF6"/>
</linearGradient>
<linearGradient id="paint35_linear" x1="361.152" y1="186.33" x2="361.152" y2="0.32666" gradientUnits="userSpaceOnUse">
<stop stop-color="#42E8E0"/>
<stop offset="0.11" stop-color="#37B6BF"/>
<stop offset="0.22" stop-color="#2C87A1"/>
<stop offset="0.34" stop-color="#235F87"/>
<stop offset="0.473958" stop-color="#1C3F72"/>
<stop offset="0.78125" stop-color="#150C33"/>
<stop offset="1" stop-color="#120B2B"/>
</linearGradient>
<linearGradient id="paint36_linear" x1="62.6539" y1="277.33" x2="62.6539" y2="100.327" gradientUnits="userSpaceOnUse">
<stop stop-color="#42E8E0"/>
<stop offset="0.11" stop-color="#37B6BF"/>
<stop offset="0.22" stop-color="#2C87A1"/>
<stop offset="0.34" stop-color="#235F87"/>
<stop offset="0.473958" stop-color="#1C3F72"/>
<stop offset="0.78125" stop-color="#150C33"/>
<stop offset="1" stop-color="#120B2B"/>
</linearGradient>
<linearGradient id="paint37_linear" x1="204.153" y1="657.331" x2="204.153" y2="450.327" gradientUnits="userSpaceOnUse">
<stop stop-color="#42E8E0"/>
<stop offset="0.11" stop-color="#37B6BF"/>
<stop offset="0.22" stop-color="#2C87A1"/>
<stop offset="0.34" stop-color="#235F87"/>
<stop offset="0.473958" stop-color="#1C3F72"/>
<stop offset="0.78125" stop-color="#150C33"/>
<stop offset="1" stop-color="#120B2B"/>
</linearGradient>
<linearGradient id="paint38_linear" x1="361.346" y1="74.0898" x2="361.346" y2="157.488" gradientUnits="userSpaceOnUse">
<stop offset="0.234375" stop-color="#29CD9C"/>
<stop offset="1" stop-color="#35AABD"/>
</linearGradient>
<linearGradient id="paint39_linear" x1="61.2888" y1="163.591" x2="61.2888" y2="246.989" gradientUnits="userSpaceOnUse">
<stop offset="0.234375" stop-color="#29CD9C"/>
<stop offset="1" stop-color="#35AABD"/>
</linearGradient>
<linearGradient id="paint40_linear" x1="203.809" y1="543.327" x2="203.809" y2="626.725" gradientUnits="userSpaceOnUse">
<stop offset="0.234375" stop-color="#29CD9C"/>
<stop offset="1" stop-color="#35AABD"/>
</linearGradient>
<clipPath id="clip0">
<rect width="143.701" height="333.939" fill="white" transform="matrix(-1 0 0 1 375.808 123.327)"/>
</clipPath>
<clipPath id="clip1">
<rect width="44.9577" height="52.887" fill="white" transform="translate(290.682 283.351)"/>
</clipPath>
<clipPath id="clip2">
<rect width="285.993" height="664.604" fill="white" transform="translate(417.113)"/>
</clipPath>
<clipPath id="clip3">
<rect width="99.7014" height="129.533" fill="white" transform="translate(154.057 594.794)"/>
</clipPath>
<clipPath id="clip4">
<rect width="99.7014" height="129.533" fill="white" transform="translate(311.486 127.54)"/>
</clipPath>
<clipPath id="clip5">
<rect width="103.771" height="129.533" fill="white" transform="translate(10.5442 216.22)"/>
</clipPath>
<clipPath id="clip6">
<rect width="44.9577" height="52.8869" fill="white" transform="translate(181.331 558.583)"/>
</clipPath>
<clipPath id="clip7">
<rect width="34.249" height="52.8869" fill="white" transform="translate(186.62 558.583)"/>
</clipPath>
<clipPath id="clip8">
<rect width="48.8229" height="38.262" fill="white" transform="translate(336.935 96.2617)"/>
</clipPath>
</defs>
</svg>
