<svg width="114" height="45" viewBox="0 0 114 45" fill="none" xmlns="http://www.w3.org/2000/svg">
<path d="M56.556 27.9999C56.328 27.9999 56.136 27.9219 55.98 27.7659C55.824 27.6099 55.746 27.4179 55.746 27.1899V16.2639C55.746 16.0359 55.824 15.8439 55.98 15.6879C56.136 15.5199 56.328 15.4359 56.556 15.4359H63.774C63.99 15.4359 64.17 15.5139 64.314 15.6699C64.47 15.8139 64.548 15.9939 64.548 16.2099C64.548 16.4259 64.47 16.6059 64.314 16.7499C64.17 16.8939 63.99 16.9659 63.774 16.9659H57.384V20.9439H63.126C63.342 20.9439 63.522 21.0219 63.666 21.1779C63.822 21.3219 63.9 21.5019 63.9 21.7179C63.9 21.9339 63.822 22.1139 63.666 22.2579C63.522 22.4019 63.342 22.4739 63.126 22.4739H57.384V26.4699H63.774C63.99 26.4699 64.17 26.5479 64.314 26.7039C64.47 26.8479 64.548 27.0279 64.548 27.2439C64.548 27.4599 64.47 27.6399 64.314 27.7839C64.17 27.9279 63.99 27.9999 63.774 27.9999H56.556Z" fill="white"/>
<path d="M73.2385 28.0899C73.0105 28.0899 72.8125 28.0119 72.6445 27.8559C72.4885 27.6999 72.4105 27.5079 72.4105 27.2799V22.6899L68.1085 16.6599C68.0125 16.5039 67.9645 16.3419 67.9645 16.1739C67.9645 15.9459 68.0365 15.7539 68.1805 15.5979C68.3365 15.4299 68.5285 15.3459 68.7565 15.3459C69.0565 15.3459 69.2965 15.4839 69.4765 15.7599L73.2385 21.2319L77.0005 15.7599C77.1805 15.4839 77.4205 15.3459 77.7205 15.3459C77.9485 15.3459 78.1405 15.4299 78.2965 15.5979C78.4525 15.7539 78.5245 15.9459 78.5125 16.1739C78.5125 16.3419 78.4645 16.5039 78.3685 16.6599L74.0485 22.6899V27.2799C74.0485 27.5079 73.9705 27.6999 73.8145 27.8559C73.6585 28.0119 73.4665 28.0899 73.2385 28.0899Z" fill="white"/>
<path d="M86.2984 28.0899C86.0584 28.0899 85.8424 28.0239 85.6504 27.8919C85.4704 27.7479 85.3324 27.5439 85.2364 27.2799L81.7084 16.4439C81.6724 16.3119 81.6544 16.2099 81.6544 16.1379C81.6424 15.9099 81.7084 15.7239 81.8524 15.5799C82.0084 15.4239 82.2064 15.3459 82.4464 15.3459C82.6384 15.3459 82.8064 15.4059 82.9504 15.5259C83.0944 15.6459 83.1964 15.8019 83.2564 15.9939L86.2804 25.9299L89.3224 16.0299C89.3824 15.8259 89.4964 15.6639 89.6644 15.5439C89.8444 15.4119 90.0424 15.3459 90.2584 15.3459C90.4744 15.3459 90.6664 15.4119 90.8344 15.5439C91.0144 15.6639 91.1344 15.8259 91.1944 16.0299L94.2364 25.9299L97.2604 15.9939C97.3204 15.8019 97.4224 15.6459 97.5664 15.5259C97.7104 15.4059 97.8784 15.3459 98.0704 15.3459C98.3104 15.3459 98.5024 15.4239 98.6464 15.5799C98.8024 15.7239 98.8744 15.9099 98.8624 16.1379C98.8624 16.2099 98.8444 16.3119 98.8084 16.4439L95.2804 27.2799C95.1844 27.5439 95.0404 27.7479 94.8484 27.8919C94.6684 28.0239 94.4584 28.0899 94.2184 28.0899C93.9784 28.0899 93.7564 28.0179 93.5524 27.8739C93.3604 27.7179 93.2284 27.5199 93.1564 27.2799L90.2584 18.0999L87.3604 27.2799C87.2884 27.5199 87.1504 27.7179 86.9464 27.8739C86.7544 28.0179 86.5384 28.0899 86.2984 28.0899Z" fill="white"/>
<path d="M103.054 28.0899C102.814 28.0899 102.616 28.0119 102.46 27.8559C102.316 27.6999 102.244 27.5079 102.244 27.2799C102.244 27.1839 102.274 27.0639 102.334 26.9199L106.924 16.0839C107.02 15.8679 107.152 15.6939 107.32 15.5619C107.5 15.4179 107.716 15.3459 107.968 15.3459H108.148C108.4 15.3459 108.61 15.4179 108.778 15.5619C108.958 15.6939 109.096 15.8679 109.192 16.0839L113.782 26.9199C113.842 27.0639 113.872 27.1839 113.872 27.2799C113.872 27.5079 113.794 27.6999 113.638 27.8559C113.494 28.0119 113.302 28.0899 113.062 28.0899C112.894 28.0899 112.738 28.0479 112.594 27.9639C112.462 27.8679 112.36 27.7419 112.288 27.5859L111.118 24.7779H104.998L103.828 27.5859C103.756 27.7419 103.648 27.8679 103.504 27.9639C103.372 28.0479 103.222 28.0899 103.054 28.0899ZM105.628 23.2839H110.488L108.058 17.4339L105.628 23.2839Z" fill="white"/>
<path d="M16.1611 6.27689C16.1611 4.16102 17.8825 2.43964 19.9983 2.43964C21.0235 2.43964 21.9873 2.83884 22.7118 3.56339C23.4364 4.28793 23.8356 5.25176 23.8356 6.27689V9.7389L26.2752 8.3299V6.27689C26.2752 4.59991 25.6222 3.02352 24.4371 1.83808C23.2517 0.652639 21.6757 0 19.9987 0C16.5375 0 13.7218 2.81566 13.7218 6.27689V20.0094L23.836 25.8494V37.9615C23.836 40.0774 22.1146 41.7988 19.9987 41.7988C18.9732 41.7988 18.0094 41.3996 17.2848 40.675C16.5603 39.9505 16.1611 38.9867 16.1611 37.9615V34.5003L13.7214 35.9081V37.9615C13.7214 39.6389 14.3749 41.2153 15.5607 42.4C16.7461 43.5854 18.3221 44.238 19.9983 44.238C23.4596 44.238 26.2752 41.4224 26.2752 37.9611V24.2306L16.1611 18.391V6.27689Z" fill="#0CCFAC"/>
<path d="M36.8584 24.605L27.5874 19.2523L34.3755 15.3329C34.7798 15.0987 35.0313 14.6638 35.0313 14.1978C35.0313 13.9691 34.9704 13.7428 34.8549 13.5432C34.6796 13.2394 34.3971 13.0226 34.0592 12.9322C33.7213 12.8414 33.3681 12.8874 33.0647 13.0626L22.5262 19.1474L35.6384 26.7174C36.526 27.2293 37.1613 28.0576 37.4265 29.049C37.6918 30.0395 37.555 31.0737 37.0411 31.9613C36.3586 33.1432 35.0851 33.8775 33.7178 33.8775C33.0475 33.8775 32.3858 33.7003 31.8039 33.3652L28.8031 31.6328V34.45L30.5862 35.4783C31.5379 36.0272 32.6207 36.3172 33.7182 36.3172C35.9535 36.3172 38.0364 35.1164 39.1538 33.1833C39.2587 33.0021 39.355 32.8155 39.4403 32.6277V32.6273C39.5255 32.4402 39.6021 32.2473 39.6682 32.0536C39.7015 31.9562 39.7318 31.8587 39.7601 31.7605C39.9291 31.1715 40.0096 30.5621 39.9994 29.9495C39.9911 29.4352 39.9188 28.9197 39.7845 28.4175C39.3503 26.7967 38.311 25.4427 36.8584 24.605Z" fill="#0CCFAC"/>
<path d="M21.3091 6.27709C21.3091 5.927 21.1727 5.59773 20.9252 5.35019C20.6776 5.10265 20.3484 4.96631 19.9983 4.96631C19.2753 4.96631 18.6875 5.55451 18.6875 6.27709V16.9319L19.9983 17.6879L31.7992 10.8754C32.3839 10.5387 33.0467 10.3603 33.7163 10.3603C35.0844 10.3603 36.3587 11.0962 37.0412 12.2813C37.3779 12.8628 37.5559 13.5257 37.5559 14.198C37.5559 15.5633 36.8219 16.8356 35.6404 17.5193L32.6385 19.2529L35.0781 20.6611L36.8624 19.6312C38.7948 18.5118 39.9951 16.4297 39.9951 14.1983C39.9951 13.0974 39.7044 12.0129 39.1539 11.0621C38.0364 9.12497 35.9528 7.92146 33.7155 7.92146C32.6181 7.92146 31.5332 8.21261 30.5788 8.76309L21.3083 14.115V6.27709H21.3091Z" fill="#E651F3"/>
<path d="M0.794047 17.2545C0.870273 17.3916 0.956716 17.5326 1.05888 17.6855C1.30641 18.0572 1.59128 18.3998 1.90562 18.7035C2.27496 19.0607 2.69028 19.3735 3.14056 19.6332L12.4111 24.9859L5.62342 28.9053C5.21911 29.1395 4.96803 29.5745 4.96803 30.0405C4.96803 30.2691 5.02893 30.4955 5.14445 30.6951C5.37785 31.0994 5.81399 31.3508 6.28235 31.3508C6.51063 31.3508 6.73617 31.2903 6.93459 31.176L17.4715 25.092L4.36058 17.5209C3.47219 17.0077 2.83684 16.1794 2.57201 15.1893C2.30797 14.1983 2.44549 13.1642 2.95864 12.277C3.64193 11.0947 4.91499 10.3603 6.28117 10.3603C6.95228 10.3603 7.61474 10.5379 8.19665 10.8742L11.1958 12.6066V9.78938L9.4151 8.75954C8.46344 8.21063 7.37977 7.92065 6.28117 7.92065C4.04546 7.92065 1.96298 9.12181 0.846698 11.0546C0.00624269 12.5068 -0.217721 14.1991 0.216062 15.8199C0.350441 16.3228 0.544936 16.8054 0.794047 17.2545Z" fill="#0CCFAC"/>
<path d="M6.28112 12.887C5.81355 12.887 5.3782 13.138 5.1448 13.5427C4.96956 13.8461 4.92241 14.1989 5.01317 14.5368C5.10355 14.8751 5.32044 15.158 5.62416 15.3333L11.1962 18.5509V15.5231L6.93455 13.0622C6.73495 12.9475 6.50902 12.887 6.28112 12.887Z" fill="#E651F3"/>
<path d="M18.6884 37.9617C18.6884 38.3118 18.8248 38.6411 19.0723 38.8886C19.3198 39.1362 19.6491 39.2725 19.9996 39.2725C20.7222 39.2725 21.3104 38.6843 21.3104 37.9617V27.3077L20 26.5506L19.9972 26.5517L8.19944 33.3642C7.61595 33.7005 6.9531 33.8781 6.28238 33.8781C4.91424 33.8781 3.6396 33.143 2.95632 31.9591C2.61958 31.3748 2.44159 30.7116 2.44159 30.0409C2.44159 28.6763 3.17596 27.4036 4.35825 26.7199L7.35898 24.9871L4.91934 23.5781L3.13588 24.6076C1.20272 25.7274 0.00195312 27.8095 0.00195312 30.0409C0.00195312 31.141 0.292715 32.2255 0.843195 33.1775C1.96144 35.1146 4.04549 36.3178 6.28238 36.3178C7.3802 36.3178 8.46466 36.027 9.41906 35.4765L18.6884 30.1242V37.9617Z" fill="#E651F3"/>
<path d="M33.7181 31.3513C34.1853 31.3513 34.6206 31.1003 34.8544 30.6955C35.0297 30.3922 35.0764 30.0394 34.9861 29.7015C34.8957 29.3632 34.6788 29.0803 34.3755 28.9054L28.8035 25.689V28.7152L33.0651 31.1757C33.2635 31.2904 33.4894 31.3513 33.7181 31.3513Z" fill="#E651F3"/>
</svg>
